<?xml version="1.0" encoding="utf-8"?>
<!-- Generator: Adobe Illustrator 16.0.0, SVG Export Plug-In . SVG Version: 6.00 Build 0)  -->
<!DOCTYPE svg PUBLIC "-//W3C//DTD SVG 1.1//EN" "http://www.w3.org/Graphics/SVG/1.1/DTD/svg11.dtd">
<svg version="1.1"
	 id="Layer_1" xmlns:sodipodi="http://sodipodi.sourceforge.net/DTD/sodipodi-0.dtd" xmlns:dc="http://purl.org/dc/elements/1.1/" xmlns:cc="http://creativecommons.org/ns#" xmlns:svg="http://www.w3.org/2000/svg" xmlns:rdf="http://www.w3.org/1999/02/22-rdf-syntax-ns#" xmlns:inkscape="http://www.inkscape.org/namespaces/inkscape"
	 xmlns="http://www.w3.org/2000/svg" xmlns:xlink="http://www.w3.org/1999/xlink" x="0px" y="0px" width="350.801px"
	 height="309.905px" viewBox="424.602 85.046 350.801 309.905" enable-background="new 424.602 85.046 350.801 309.905"
	 xml:space="preserve">
<g transform="translate(0,-952.36218)">
	<path fill="#FFFFFF" d="M742.767,1037.411c17.939,0,32.636,14.695,32.636,32.633v163.163c0,17.938-14.695,32.633-32.636,32.633
		h-36.584l7.396,72.529c0.297,3.283-1.617,6.656-4.586,8.086c-2.973,1.431-6.799,0.822-9.182-1.457l-79.414-79.157h-28.554v12.489
		c0,13.312-11.03,24.222-24.348,24.222h-61.314l-43.211,42.446c-2.444,2.424-6.504,3.027-9.549,1.418
		c-3.047-1.604-4.838-5.295-4.219-8.684l6.248-35.185h-6.502c-13.316,0-24.347-10.907-24.347-24.219v-78.012
		c0-13.312,11.029-24.22,24.347-24.22h24.602v-106.056c0-17.938,14.695-32.633,32.633-32.633h236.584V1037.411z M742.767,1053.727
		H506.181c-9.18,0-16.315,7.136-16.315,16.316v163.164c0,9.18,7.137,16.316,16.315,16.316H623.71c2.111,0,4.217,0.824,5.736,2.295
		l65.646,65.391l-6.119-58.764c-0.426-4.52,3.619-8.941,8.158-8.922h45.635c9.181,0,16.316-7.137,16.316-16.316v-163.164
		C759.083,1060.863,751.947,1053.727,742.767,1053.727z M714.214,1090.439c4.506,0,8.158,3.652,8.158,8.158
		c0,4.506-3.652,8.158-8.158,8.158H534.736c-4.508,0-8.16-3.652-8.16-8.158c0-4.505,3.652-8.158,8.16-8.158H714.214z
		 M714.214,1143.467c4.506,0,8.158,3.651,8.158,8.157s-3.652,8.158-8.158,8.158H534.736c-4.508,0-8.16-3.652-8.16-8.158
		s3.652-8.157,8.16-8.157H714.214z M473.548,1192.415h-24.602c-4.603,0-8.031,3.447-8.031,7.904v78.01
		c0,4.459,3.43,7.904,8.031,7.904h16.188c4.738,0,8.846,4.893,8.031,9.561l-3.441,19.761l27.406-27.025
		c1.519-1.469,3.623-2.312,5.736-2.293h64.627c4.602,0,8.031-3.447,8.031-7.904v-12.491h-69.347
		c-17.936,0-32.631-14.693-32.631-32.634V1192.415L473.548,1192.415L473.548,1192.415z M714.214,1196.495
		c4.506,0,8.158,3.651,8.158,8.158c0,4.506-3.652,8.157-8.158,8.157H534.736c-4.508,0-8.16-3.651-8.16-8.157
		c0-4.507,3.652-8.158,8.16-8.158H714.214z"/>
</g>
</svg>
