<?xml version="1.0" encoding="utf-8"?>
<!-- Generator: Adobe Illustrator 16.0.0, SVG Export Plug-In . SVG Version: 6.00 Build 0)  -->
<!DOCTYPE svg PUBLIC "-//W3C//DTD SVG 1.1//EN" "http://www.w3.org/Graphics/SVG/1.1/DTD/svg11.dtd">
<svg version="1.1" id="Layer_1" xmlns="http://www.w3.org/2000/svg" xmlns:xlink="http://www.w3.org/1999/xlink" x="0px" y="0px"
	 width="266.859px" height="432px" viewBox="466.569 24 266.859 432" enable-background="new 466.569 24 266.859 432"
	 xml:space="preserve">
<path fill="#FFFFFF" d="M732.336,358.339c-2.333-1.296-4.737-2.726-7.181-4.276c-20.16-12.772-43.22-33.729-56.175-55.181
	c0.072-0.216,0.14-0.432,0.207-0.653c9.239-28.858,17.256-52.224,32.668-74.396c4.052-5.827,11.453-16.483,7.157-25.814
	c0.043-0.077,0.087-0.153,0.115-0.235c4.061-10.704,1.685-16.786-1.018-20.002c-4.612-5.481-12.95-5.659-18.807-2.995
	c-5.895,2.679-10.19,7.666-13.982,12.067c-4.603,5.342-8.001,13.973-11.169,22.776c-8.972,11.247-12.917,22.402-17.045,34.085
	c-0.202,0.571-0.403,1.142-0.609,1.718c0.076-13.791,0.979-32.376,1.857-50.496c1.156-23.832,2.352-48.47,1.665-62.188
	c-0.178-3.566-0.379-7.608-1.9-11.319c-1.805-4.401-5.381-7.541-9.331-8.198c-4.358-0.725-9.145,1.57-12.178,5.837
	c-0.312,0.441-0.609,0.95-0.893,1.507c-0.202-1.066-0.456-2.126-0.783-3.178c-1.68-5.453-5.116-9.71-9.417-11.674
	c-4.393-2.001-9.826-1.564-13.844,1.114c-3.522,2.352-5.87,6.375-6.283,10.584c-1.853,0.005-3.643,0.245-5.188,0.72
	c-3.091,0.95-7.171,3.254-9.802,11.812c-3.11-1.666-7.065-2.069-10.607-0.725c-4.892,1.853-8.847,6.576-10.579,12.633
	c-1.483,5.184-1.32,10.709-1.167,15.591c-4.2,2.261-7.271,6.825-8.822,10.728c-2.103,5.304-2.203,11.054-2.285,16.133
	c-0.187,11.28-0.292,21.71-0.316,32.025c-0.897-0.975-1.982-1.805-3.321-2.328c-4.997-1.949-10.325,1.541-12.394,5.895
	c-1.925,4.056-1.709,8.559-1.32,12.826c0.408,4.488,0.835,9.038,1.267,13.637c1.47,15.648,2.957,31.574,3.932,47.337
	c0.917,14.832,1.373,29.529,0.912,43.719c-1.018,31.281-7.536,44.515-23.193,69.772c-0.951,1.536-1.935,3.115-2.957,4.747
	c-0.624,0.999-0.321,2.31,0.677,2.934c0.351,0.221,0.739,0.326,1.128,0.326c0.711,0,1.401-0.355,1.805-0.999
	c18.235-29.155,25.68-42.354,26.794-76.637c0.629-19.358-0.428-39.576-2.035-59.803c-0.845-10.637-1.839-21.274-2.827-31.791
	c-0.346-3.701-0.687-7.358-1.022-10.987c0.01-0.01,0.023-0.014,0.033-0.019c2.247-1.512,8.193-6.211,9.691-7.599
	c1.329-1.229,1.474-3.331,1.138-6c0.576,1.143,1.037,2.429,1.449,3.667c0.062,0.182,0.149,0.345,0.25,0.494
	c0.01,2.539,0.02,5.083,0.038,7.646c0.101,14.126,0.37,28.757,0.812,45.701c0.028,1.157,0.975,2.074,2.126,2.074
	c0.02,0,0.039,0,0.058,0c1.176-0.029,2.103-1.008,2.069-2.184c-0.711-27.37-0.97-48.691-0.812-71.63
	c3.024-2.688,7.037-4.219,11.083-4.219c0.039,0,0.077,0,0.12,0c1.166,0,2.117-0.941,2.127-2.112
	c0.009-1.176-0.941-2.131-2.112-2.141c-0.043,0-0.087,0-0.13,0c-3.883,0-7.742,1.124-11.045,3.159
	c0.053-5.645,0.13-11.415,0.23-17.429c0.015-0.84,0.029-1.699,0.053-2.573c2.468-0.97,5.448-1.455,8.112-1.882
	c2.731-0.437,4.892-0.782,6.36-1.584c2.016-1.099,2.668-4.209,2.179-10.397c-0.221-2.779-0.634-5.578-0.993-7.474
	c0.484,0.173,0.945,0.427,1.382,0.797c3.039,2.563,4.857,10.008,5.41,22.128c0.009,0.254,0.076,0.495,0.168,0.715
	c-0.446,5.904-0.859,11.817-1.268,17.678c-1.521,21.835-3.096,44.415-6.188,64.402c-0.177,1.162,0.614,2.246,1.776,2.429
	c0.11,0.019,0.221,0.024,0.326,0.024c1.032,0,1.939-0.753,2.098-1.805c0.576-3.729,1.1-7.541,1.579-11.419
	c2.122-17.102,3.398-35.467,4.646-53.337c0.053-0.744,0.105-1.488,0.153-2.232c4.565-0.053,9.049-1.886,12.308-5.122
	c0.835-0.826,0.84-2.174,0.015-3.01c-0.826-0.835-2.175-0.84-3.01-0.009c-2.356,2.337-5.679,3.739-9.01,3.874
	c0.283-4.013,0.571-8.04,0.879-12.058l8.457-0.365c1.176-0.053,2.083-1.042,2.035-2.218c-0.053-1.171-1.031-2.098-2.218-2.035
	l-7.943,0.341c0.84-10.642,1.814-21.183,3.086-31.248c0.034-0.043,0.067-0.082,0.097-0.125c0.94-1.411,7.642-4.368,10.099-4.459
	c0.562-0.019,1.128-0.024,1.694-0.029c2.318-0.019,4.719-0.034,7.057-1.046c1.146-0.495,1.986-1.709,2.721-3.926
	c0.816-2.467,1.508-6.23,1.849-10.061c0.072-0.806,0.125-1.531,0.153-2.189c0.902,2.055,1.373,5.093,1.8,7.853
	c0.322,2.088,0.634,4.075,1.119,5.76c-1.397,3.135-2.021,6.528-2.53,9.298l-2.266,12.365l-19.742,107.798
	c-0.211,1.157,0.552,2.266,1.709,2.477c1.128,0.202,2.193-0.514,2.448-1.613c0.009-0.034,0.023-0.062,0.028-0.096l11.05-60.327
	l13.387-1.157c1.172-0.101,2.035-1.133,1.935-2.304c-0.101-1.171-1.133-2.04-2.304-1.935l-12.226,1.056l2.025-11.064
	c0.11-0.048,0.221-0.106,0.326-0.178c3.278-2.198,7.944-2.333,11.348-0.336c1.013,0.595,2.318,0.254,2.908-0.758
	c0.596-1.013,0.255-2.318-0.758-2.909c-3.859-2.265-8.702-2.597-12.869-1.051l4.81-26.266c0.197,0.005,0.398,0.014,0.601,0.024
	c0.916,0.034,1.905,0.072,2.923,0.072c3.715,0,7.8-0.494,10.052-3.432c2.159-2.823,5.486-10.719,6.441-17.256
	c1.022,2.525,2.102,6.984,2.64,14.482c0.739,10.296,0.14,22.622-1.564,32.165c-2.856,15.984-0.346,59.808,0.858,80.866
	c0.279,4.838,0.519,9.053,0.523,10.2c0,0.024,0,0.058,0,0.082c-0.12,0.628,0.048,1.291,0.466,1.781
	c0.158,0.254,0.365,0.48,0.629,0.653c0.216,0.144,0.451,0.235,0.691,0.288l0.028,0.02l0.245,0.153l0.188-0.11
	c0.695,0.005,1.382-0.326,1.79-0.955c8.962-13.599,13.113-25.334,17.126-36.682c5.155-14.583,9.605-27.173,23.318-40.498
	c4.253-4.133,9.293-8.683,15.312-10.373c5.131-1.436,12.13-0.264,14.995,4.737c1.037,1.81,1.406,3.763,1.286,5.813
	c-3.729-2.323-8.956-3.648-13.146-2.218c-4.767,1.627-11.544,8.851-12.207,14.294l-0.144,1.19l13.195,10.368
	c-2.847,4.564-5.424,9.187-7.805,13.905c-0.408,0.048-0.841,0.105-1.239,0.288c-0.878,0.23-1.78,0.355-2.688,0.389
	c-2.626,0.101-5.309-0.581-7.589-1.9c-1.21-0.701-2.313-1.575-3.23-2.611c-0.777-0.883-2.121-0.965-3.005-0.192
	c-0.883,0.778-0.965,2.122-0.192,3.005c3.365,3.821,8.396,5.976,13.445,5.976c0.72,0,1.436-0.048,2.15-0.139
	c-7.958,16.882-13.762,35.083-20.491,56.188c-1.857,5.823-3.777,11.847-5.827,18.106c-0.336,1.031-0.413,2.184-0.221,3.326
	c0.12,0.7,0.278,3.988-2.76,16.896l-0.02,0.102c-1.978,10.655-10.488,23.361-20.122,31.171c-0.058-0.015-0.11-0.034-0.168-0.043
	c-1.156-0.168-2.241,0.638-2.409,1.805l-0.029,0.206c-1.896,1.33-3.815,2.463-5.717,3.331c-5.52,2.516-10.276,2.641-14.141,0.37
	c-0.201-0.12-0.412-0.188-0.629-0.235c-0.873-0.188-1.805,0.178-2.279,0.988c-0.596,1.013-0.26,2.318,0.753,2.914
	c2.481,1.459,5.252,2.188,8.223,2.188c3.087,0,6.394-0.787,9.835-2.356c1.052-0.48,2.103-1.037,3.154-1.651l-0.96,6.682
	c-0.265,0.466-0.355,1.022-0.226,1.56l-7.085,49.248c-0.754,5.247-1.536,10.671-0.864,16.172c0.163,1.061,1.08,1.853,2.141,1.853
	c0.087,0,0.173-0.005,0.26-0.015c1.166-0.144,1.996-1.204,1.853-2.371c-0.604-4.944,0.134-10.08,0.85-15.053l6.206-43.128
	c13.263,24.754,33.975,45.264,58.949,58.205c0.312,0.163,0.647,0.24,0.979,0.24c0.769,0,1.513-0.418,1.892-1.147
	c0.542-1.042,0.135-2.328-0.912-2.866c-2.021-1.046-4.013-2.155-5.976-3.302c-21.553-12.605-39.408-31.152-51.192-53.16
	c-0.931-1.742-1.829-3.504-2.683-5.29l1.564-10.857c10.887-8.361,20.697-22.68,22.935-34.642c2.294-9.758,3.235-15.998,2.803-18.542
	c-0.077-0.461-0.053-0.902,0.067-1.282c2.055-6.278,3.979-12.307,5.837-18.139c0.048-0.153,0.096-0.303,0.144-0.456
	c5.962,9.206,13.872,18.672,23.357,27.897c12.346,12.005,26.424,22.651,39.629,29.972c0.326,0.182,0.682,0.269,1.026,0.269
	c0.749,0,1.474-0.394,1.862-1.095C733.732,360.206,733.363,358.91,732.336,358.339z M540.777,224.362
	c-0.888,0.796-3.182,2.649-5.342,4.325c-0.615,0.475-1.22,0.936-1.776,1.354c-0.168-2.942-0.058-5.866,1.104-8.313
	c0.955-2.011,3.091-3.768,5.212-3.979c0.039,0.188,0.077,0.384,0.12,0.591c0.072,0.365,0.178,0.878,0.288,1.464
	C540.682,221.429,541.013,223.574,540.777,224.362z M563.467,174.72c-0.94,0.398-2.889,0.71-4.771,1.013
	c-2.107,0.336-4.565,0.739-6.917,1.421c-0.087,0.024-0.168,0.048-0.255,0.072c0.255-2.563,0.729-5.117,1.666-7.474
	c1.694-4.272,5.241-8.798,9.365-9.389c0.076,0.321,0.153,0.696,0.229,1.113C563.516,165.365,564.273,172.925,563.467,174.72z
	 M571.042,158.025c-3.049-2.577-6.596-2.188-8.771-1.92c-0.004-0.187-0.009-0.374-0.014-0.566c-0.11-4.224-0.082-8.52,1.056-12.504
	c1.363-4.771,4.354-8.443,7.997-9.826c2.515-0.955,5.803-0.581,8.021,1.051c-0.178,0.878-0.346,1.805-0.494,2.784
	c-0.188,1.2-0.365,2.414-0.542,3.633c-1.147,7.987-2.074,16.33-2.871,24.826C574.32,162.029,572.87,159.571,571.042,158.025z
	 M598.622,138.547c-1.497,0.576-3.283,0.585-5.164,0.6c-0.61,0.004-1.22,0.009-1.819,0.033c-1.906,0.072-4.925,1.119-7.119,2.074
	c-0.682,0.297-1.42,0.643-2.154,1.032c0.216-1.546,0.441-3.077,0.677-4.594c0.974-6.302,2.812-13.757,8.419-15.48
	c2.669-0.821,6.557-0.701,9.542,0.365C601.431,125.851,600.091,136.502,598.622,138.547z M611.275,133.382
	c-0.48-3.115-0.979-6.307-2.088-8.856c-0.446-1.032-0.994-1.958-1.686-2.736c-0.911-1.022-2.098-1.858-3.432-2.52
	c-0.283-0.226-0.614-0.37-0.965-0.432c-1.095-0.446-2.266-0.792-3.475-1.027c0.283-2.961,1.934-5.789,4.411-7.44
	c2.817-1.881,6.633-2.188,9.715-0.782c3.201,1.459,5.794,4.762,7.118,9.058c1.162,3.772,1.325,7.886,1.401,11.914
	c0.005,0.288,0.01,0.576,0.015,0.864c-0.02,0.091-0.043,0.178-0.062,0.269c-0.033-0.01-0.066-0.019-0.101-0.029
	c-3.562-0.792-7.551,0.254-10.166,2.669c-0.163,0.148-0.312,0.312-0.466,0.465C611.424,134.337,611.348,133.867,611.275,133.382z
	 M622.195,146.448c-1.383,4.761-3.321,8.841-4.526,10.416c-1.517,1.982-6.038,1.824-9.37,1.699c-0.014,0-0.033,0-0.048,0
	l1.594-8.702c0.937-5.112,1.958-9.576,5.007-12.394c1.569-1.45,4.181-2.126,6.354-1.642c0.648,0.144,1.426,0.437,2.055,1.003
	c0.087,0.24,0.153,0.542,0.202,0.912C623.664,139.354,623.419,142.229,622.195,146.448z M633.927,273.874
	c-0.072-1.296-0.159-2.77-0.25-4.411c-1.195-20.899-3.682-64.382-0.917-79.877c0.043-0.23,0.077-0.465,0.12-0.701
	c1.671-9.763,2.246-22.143,1.503-32.52c-0.85-11.803-3.105-18.777-6.721-20.77c-0.273-0.495-0.6-0.941-0.97-1.354
	c-0.009-0.015-0.019-0.024-0.033-0.039c-0.163-0.182-0.336-0.36-0.519-0.528c0.034-0.134,0.062-0.269,0.096-0.408
	c0.874-3.749,2.199-9.408,3.854-11.736c1.724-2.419,4.867-4.627,8.017-4.104c2.995,0.495,5.107,3.226,6.086,5.616
	c1.243,3.034,1.421,6.533,1.589,9.917c0.677,13.512-0.514,38.045-1.665,61.771c-0.84,17.309-1.699,35.04-1.844,48.71
	c-0.053,4.911-0.01,9.293,0.154,12.946C640.176,261.97,637.512,267.749,633.927,273.874z M688.604,190.167
	c-6.701,1.876-12.053,6.523-16.565,10.872c1.954-4.555,4.075-8.583,6.514-11.41c3.504-4.066,7.479-8.674,12.519-10.968
	c4.286-1.949,10.574-1.958,13.791,1.863c3.066,3.648,2.327,9.187,1.133,13.257C701.443,189.475,694.281,188.578,688.604,190.167z
	 M685.162,216.307c1.186-3.528,5.773-8.549,9.096-9.682c3.264-1.113,8.606,0.417,11.434,3.283c0.139,0.139,0.293,0.25,0.456,0.341
	l-8.929,15.538L685.162,216.307z"/>
<path fill="#FFCC02" d="M553.732,42.581c-5.678,2.409-11.352,4.824-17.03,7.233c9.566,19.118,21.105,37.253,34.368,54.019
	C565.291,83.415,559.512,62.995,553.732,42.581z"/>
<path fill="#50E3C2" d="M471.456,116.981c-1.627,3.307-3.259,6.619-4.887,9.926c11.799,4.925,52.479,23.549,65.03,25.963
	C521.012,145.882,482.05,123.97,471.456,116.981z"/>
<path fill="#50E3C2" d="M639.639,24c-2.516,12.538-12.812,56.074-12.721,68.856c4.781-11.755,18.634-54.254,23.415-66.009
	C646.771,25.901,643.205,24.95,639.639,24z"/>
<path fill="#FFCC02" d="M477.355,190.358c0.883,2.237,1.766,4.469,2.654,6.706c7.541-3.542,34.344-15.019,41.006-20.025
	C513,179.093,485.366,188.309,477.355,190.358z"/>
<path fill="#FFCC02" d="M696.95,117.936c-5.76,6.019-26.63,26.381-31.041,33.451c6.734-4.8,29.198-23.347,35.933-28.147
	C700.21,121.469,698.578,119.702,696.95,117.936z"/>
<path fill="#FFFFFF" d="M596.323,285.485c-0.71,0.432-1.714,0.71-2.88,0.831c-2.016,0.206-4.512-0.053-6.773-0.792
	c-1.425-0.466-2.63-1.075-3.504-1.748c-0.667-0.518-1.142-1.075-1.377-1.637c-0.446-1.085-1.689-1.603-2.779-1.157
	c-1.085,0.446-1.604,1.689-1.157,2.779c1.037,2.505,3.696,4.569,7.493,5.808c1.997,0.653,4.387,1.07,6.715,1.07
	c2.381,0,4.704-0.442,6.476-1.522c1.003-0.614,1.32-1.92,0.705-2.923C598.632,285.187,597.326,284.871,596.323,285.485z"/>
</svg>
