<?xml version="1.0" encoding="UTF-8"?>
<svg width="147px" height="35px" viewBox="0 0 147 35" version="1.1" xmlns="http://www.w3.org/2000/svg" xmlns:xlink="http://www.w3.org/1999/xlink">
    <!-- Generator: Sketch 43.2 (39069) - http://www.bohemiancoding.com/sketch -->
    <title>Group 4 Copy 4</title>
    <desc>Created with Sketch.</desc>
    <defs>
        <path d="M16.4830675,2.7391264 C16.4016942,2.65208523 16.2734247,2.62788544 16.166148,2.67932951 L3.49188827,8.75391826 C3.37715499,8.80890122 3.31560537,8.9357029 3.34345729,9.05995449 C3.37128322,9.1842321 3.48113202,9.27226208 3.60831032,9.27288659 L12.8457161,9.31694061 L12.8470411,9.31694061 C12.9455621,9.31694061 13.0364705,9.26463784 13.0847957,9.17858548 L16.5216497,3.0598126 C16.5800036,2.95593567 16.5643889,2.82614154 16.4830675,2.7391264" id="path-1"></path>
        <filter x="-22.7%" y="-15.0%" width="130.3%" height="160.0%" filterUnits="objectBoundingBox" id="filter-2">
            <feOffset dx="-1" dy="1" in="SourceAlpha" result="shadowOffsetOuter1"></feOffset>
            <feGaussianBlur stdDeviation="0.5" in="shadowOffsetOuter1" result="shadowBlurOuter1"></feGaussianBlur>
            <feColorMatrix values="0 0 0 0 0   0 0 0 0 0   0 0 0 0 0  0 0 0 0.202049366 0" type="matrix" in="shadowBlurOuter1"></feColorMatrix>
        </filter>
    </defs>
    <g id="Homepage" stroke="none" stroke-width="1" fill="none" fill-rule="evenodd">
        <g id="Home---Left-Aligned" transform="translate(-176.000000, -22.000000)">
            <g id="Header" transform="translate(176.000000, 16.000000)">
                <g id="Group-4-Copy-4" transform="translate(0.000000, 5.000000)">
                    <path d="M5.03062958,28.6427061 L5.03062958,9.31370613 L10.5131296,9.31370613 C12.5616398,9.31370613 14.3678718,9.69620231 15.9318796,10.4612061 C17.4958874,11.22621 18.7156252,12.3418238 19.5911296,13.8080811 C20.466634,15.2743385 20.9043796,16.9976962 20.9043796,18.9782061 C20.9043796,20.958716 20.466634,22.6820738 19.5911296,24.1483311 C18.7156252,25.6145885 17.4958874,26.7302023 15.9318796,27.4952061 C14.3678718,28.26021 12.5616398,28.6427061 10.5131296,28.6427061 L5.03062958,28.6427061 Z M8.44762958,25.3532061 L10.4366296,25.3532061 C11.4311345,25.3532061 12.3406255,25.2384573 13.1651296,25.0089561 C13.9896337,24.779455 14.7312513,24.4203336 15.3900046,23.9315811 C16.0487579,23.4428287 16.5630027,22.7777103 16.9327546,21.9362061 C17.3025064,21.0947019 17.4873796,20.1087118 17.4873796,18.9782061 C17.4873796,17.8477005 17.3025064,16.8617103 16.9327546,16.0202061 C16.5630027,15.1787019 16.0487579,14.5157086 15.3900046,14.0312061 C14.7312513,13.5467037 13.9896337,13.1897073 13.1651296,12.9602061 C12.3406255,12.730705 11.4311345,12.6159561 10.4366296,12.6159561 L8.44762958,12.6159561 L8.44762958,25.3532061 Z M21.8213595,22.5609561 C21.8213595,21.6854518 21.972233,20.8503351 22.2739845,20.0555811 C22.575736,19.2608272 22.9986068,18.5638341 23.5426095,17.9645811 C24.0866123,17.3653281 24.7644805,16.8893329 25.5762345,16.5365811 C26.3879886,16.1838294 27.2741047,16.0074561 28.2346095,16.0074561 C29.4246155,16.0074561 30.4998547,16.3049532 31.4603595,16.8999561 C32.4208643,17.4949591 33.1646069,18.2833262 33.6916095,19.2650811 C34.2186122,20.246836 34.4821095,21.3199503 34.4821095,22.4844561 C34.4821095,22.849958 34.4566098,23.1899546 34.4056095,23.5044561 L24.9451095,23.5044561 C25.1321105,24.28646 25.5294815,24.9112038 26.1372345,25.3787061 C26.7449876,25.8462085 27.499355,26.0799561 28.4003595,26.0799561 C28.9953625,26.0799561 29.5648568,25.9652073 30.1088595,25.7357061 C30.6528623,25.506205 31.0991078,25.1619584 31.4476095,24.7029561 L33.6406095,26.4497061 C33.0796067,27.2402101 32.3358642,27.8607039 31.4093595,28.3112061 C30.4828549,28.7617084 29.4883648,28.9869561 28.4258595,28.9869561 C27.2018534,28.9869561 26.0841146,28.7064589 25.0726095,28.1454561 C24.0611045,27.5844533 23.2663624,26.8109611 22.6883595,25.8249561 C22.1103566,24.8389512 21.8213595,23.7509621 21.8213595,22.5609561 Z M25.0598595,21.1457061 L31.2436095,21.1457061 C31.1501091,20.516703 30.8143624,19.9897083 30.2363595,19.5647061 C29.6583566,19.139704 28.9826134,18.9272061 28.2091095,18.9272061 C27.4696058,18.9272061 26.8193623,19.1290791 26.2583595,19.5328311 C25.6973567,19.9365831 25.2978607,20.4742028 25.0598595,21.1457061 Z M34.9145895,27.2274561 L36.6103395,24.7794561 C37.1288421,25.2299584 37.6962114,25.5550801 38.3124645,25.7548311 C38.9287176,25.9545821 39.5045868,26.0544561 40.0400895,26.0544561 C40.5670921,26.0544561 40.9495883,25.967332 41.1875895,25.7930811 C41.4255907,25.6188303 41.5445895,25.4042074 41.5445895,25.1492061 C41.5445895,24.9027049 41.4298406,24.692332 41.2003395,24.5180811 C40.9708383,24.3438303 40.6712163,24.2014567 40.3014645,24.0909561 C39.9317126,23.9804556 39.5237167,23.8657067 39.0774645,23.7467061 C38.6312123,23.6277055 38.1828417,23.476832 37.7323395,23.2940811 C37.2818372,23.1113302 36.8717163,22.8903324 36.5019645,22.6310811 C36.1322126,22.3718298 35.8325906,22.0148334 35.6030895,21.5600811 C35.3735883,21.1053289 35.2588395,20.5762091 35.2588395,19.9727061 C35.2588395,18.8082003 35.6519606,17.8562098 36.4382145,17.1167061 C37.2244684,16.3772024 38.2933327,16.0074561 39.6448395,16.0074561 C40.3673431,16.0074561 41.1429603,16.12433 41.9717145,16.3580811 C42.8004686,16.5918323 43.5293363,16.9977032 44.1583395,17.5757061 L42.4625895,19.8707061 C41.5445849,19.241703 40.6138442,18.9272061 39.6703395,18.9272061 C39.1943371,18.9272061 38.8628404,19.0058303 38.6758395,19.1630811 C38.4888386,19.3203319 38.3953395,19.5052051 38.3953395,19.7177061 C38.3953395,19.9472073 38.5100883,20.1490803 38.7395895,20.3233311 C38.9690906,20.497582 39.2665877,20.6463305 39.6320895,20.7695811 C39.9975913,20.8928317 40.4013373,21.0203305 40.8433395,21.1520811 C41.2853417,21.2838318 41.7252123,21.4495801 42.1629645,21.6493311 C42.6007167,21.8490821 43.0023377,22.0828298 43.3678395,22.3505811 C43.7333413,22.6183325 44.0308383,22.9838288 44.2603395,23.4470811 C44.4898406,23.9103334 44.6045895,24.4394532 44.6045895,25.0344561 C44.6045895,26.207462 44.1880937,27.1594525 43.3550895,27.8904561 C42.5220853,28.6214598 41.3448471,28.9869561 39.8233395,28.9869561 C38.7863343,28.9869561 37.8810934,28.8275827 37.1075895,28.5088311 C36.3340856,28.1900795 35.6030929,27.7629588 34.9145895,27.2274561 Z M46.0443194,12.1442061 C46.0443194,11.5747033 46.2398175,11.0965831 46.6308194,10.7098311 C47.0218214,10.3230792 47.5063166,10.1297061 48.0843194,10.1297061 C48.6538223,10.1297061 49.1298175,10.3209542 49.5123194,10.7034561 C49.8948214,11.085958 50.0860694,11.5662032 50.0860694,12.1442061 C50.0860694,12.722209 49.8948214,13.2045792 49.5123194,13.5913311 C49.1298175,13.9780831 48.6538223,14.1714561 48.0843194,14.1714561 C47.5063166,14.1714561 47.0218214,13.9759581 46.6308194,13.5849561 C46.2398175,13.1939542 46.0443194,12.713709 46.0443194,12.1442061 Z M46.4650694,28.6427061 L46.4650694,16.2369561 L49.6780694,16.2369561 L49.6780694,28.6427061 L46.4650694,28.6427061 Z M51.2707994,22.4844561 C51.2707994,20.6824471 51.910418,19.1524624 53.1896744,17.8944561 C54.4689308,16.6364498 56.0222903,16.0074561 57.8497994,16.0074561 C59.175806,16.0074561 60.3232946,16.3899523 61.2922994,17.1549561 L61.2922994,16.2369561 L64.5052994,16.2369561 L64.5052994,27.7502061 C64.5052994,28.6682107 64.4224252,29.5012024 64.2566744,30.2492061 C64.0909236,30.9972099 63.8763007,31.6262036 63.6127994,32.1362061 C63.3492981,32.6462087 63.0263013,33.0945792 62.6437994,33.4813311 C62.2612975,33.8680831 61.8766763,34.16983 61.4899244,34.3865811 C61.1031725,34.6033322 60.6803017,34.7797055 60.2212994,34.9157061 C59.7622971,35.0517068 59.3500512,35.1409559 58.9845494,35.1834561 C58.6190476,35.2259563 58.2408014,35.2472061 57.8497994,35.2472061 C56.6852936,35.2472061 55.6100543,34.9709589 54.6240494,34.4184561 C53.6380445,33.8659534 52.8518023,33.1264608 52.2652994,32.1999561 L55.2105494,30.9122061 C55.533551,31.294708 55.9266721,31.59858 56.3899244,31.8238311 C56.8531767,32.0490823 57.3397969,32.1617061 57.8497994,32.1617061 C58.8953046,32.1617061 59.7304213,31.8663341 60.3551744,31.2755811 C60.9799275,30.6848282 61.2922994,29.7222128 61.2922994,28.3877061 L61.2922994,27.8394561 C60.3487947,28.60446 59.2013062,28.9869561 57.8497994,28.9869561 C56.6512934,28.9869561 55.5463045,28.695834 54.5347994,28.1135811 C53.5232943,27.5313282 52.7264273,26.7408361 52.1441744,25.7420811 C51.5619215,24.7433261 51.2707994,23.657462 51.2707994,22.4844561 Z M54.4200494,22.4844561 C54.4200494,23.4109608 54.757921,24.2120778 55.4336744,24.8878311 C56.1094278,25.5635845 56.9147947,25.9014561 57.8497994,25.9014561 C58.8018042,25.9014561 59.613546,25.5635845 60.2850494,24.8878311 C60.9565528,24.2120778 61.2922994,23.4109608 61.2922994,22.4844561 C61.2922994,21.5664515 60.9565528,20.7695845 60.2850494,20.0938311 C59.613546,19.4180778 58.8018042,19.0802061 57.8497994,19.0802061 C56.9147947,19.0802061 56.1094278,19.4180778 55.4336744,20.0938311 C54.757921,20.7695845 54.4200494,21.5664515 54.4200494,22.4844561 Z M67.1180294,28.6427061 L67.1180294,16.2369561 L70.3310294,16.2369561 L70.3310294,17.1549561 C70.6455309,16.9169549 70.9111533,16.7320818 71.1279044,16.6003311 C71.3446554,16.4685805 71.6782771,16.3368318 72.1287794,16.2050811 C72.5792816,16.0733305 73.0680267,16.0074561 73.5950294,16.0074561 C74.2920328,16.0074561 74.9380264,16.1137051 75.5330294,16.3262061 C76.1280323,16.5387072 76.663527,16.857454 77.1395294,17.2824561 C77.6155317,17.7074583 77.987403,18.2790775 78.2551544,18.9973311 C78.5229057,19.7155847 78.6567794,20.5464514 78.6567794,21.4899561 L78.6567794,28.6427061 L75.4437794,28.6427061 L75.4437794,22.0127061 C75.4437794,20.0576964 74.5895379,19.0802061 72.8810294,19.0802061 C71.1810209,19.0802061 70.3310294,20.0406965 70.3310294,21.9617061 L70.3310294,28.6427061 L67.1180294,28.6427061 Z M79.9562593,22.5609561 C79.9562593,21.6854518 80.1071328,20.8503351 80.4088843,20.0555811 C80.7106358,19.2608272 81.1335066,18.5638341 81.6775093,17.9645811 C82.221512,17.3653281 82.8993803,16.8893329 83.7111343,16.5365811 C84.5228884,16.1838294 85.4090045,16.0074561 86.3695093,16.0074561 C87.5595153,16.0074561 88.6347545,16.3049532 89.5952593,16.8999561 C90.5557641,17.4949591 91.2995067,18.2833262 91.8265093,19.2650811 C92.353512,20.246836 92.6170093,21.3199503 92.6170093,22.4844561 C92.6170093,22.849958 92.5915096,23.1899546 92.5405093,23.5044561 L83.0800093,23.5044561 C83.2670103,24.28646 83.6643813,24.9112038 84.2721343,25.3787061 C84.8798874,25.8462085 85.6342548,26.0799561 86.5352593,26.0799561 C87.1302623,26.0799561 87.6997566,25.9652073 88.2437593,25.7357061 C88.787762,25.506205 89.2340076,25.1619584 89.5825093,24.7029561 L91.7755093,26.4497061 C91.2145065,27.2402101 90.4707639,27.8607039 89.5442593,28.3112061 C88.6177547,28.7617084 87.6232646,28.9869561 86.5607593,28.9869561 C85.3367532,28.9869561 84.2190144,28.7064589 83.2075093,28.1454561 C82.1960043,27.5844533 81.4012622,26.8109611 80.8232593,25.8249561 C80.2452564,24.8389512 79.9562593,23.7509621 79.9562593,22.5609561 Z M83.1947593,21.1457061 L89.3785093,21.1457061 C89.2850088,20.516703 88.9492622,19.9897083 88.3712593,19.5647061 C87.7932564,19.139704 87.1175132,18.9272061 86.3440093,18.9272061 C85.6045056,18.9272061 84.9542621,19.1290791 84.3932593,19.5328311 C83.8322565,19.9365831 83.4327605,20.4742028 83.1947593,21.1457061 Z M94.1842393,28.6427061 L94.1842393,16.2369561 L97.3972393,16.2369561 L97.3972393,17.1549561 C97.9922422,16.7129539 98.6318609,16.4112069 99.3161143,16.2497061 C100.000368,16.0882053 100.950233,16.0074561 102.165739,16.0074561 L102.165739,19.0802061 C101.358235,19.0802061 100.667617,19.1269557 100.093864,19.2204561 C99.5201114,19.3139566 99.058991,19.4435803 98.7104893,19.6093311 C98.3619875,19.775082 98.0899902,20.0024547 97.8944893,20.2914561 C97.6989883,20.5804576 97.5672396,20.8843295 97.4992393,21.2030811 C97.4312389,21.5218327 97.3972393,21.9107038 97.3972393,22.3697061 L97.3972393,28.6427061 L94.1842393,28.6427061 Z M102.088219,27.2274561 L103.783969,24.7794561 C104.302472,25.2299584 104.869841,25.5550801 105.486094,25.7548311 C106.102347,25.9545821 106.678217,26.0544561 107.213719,26.0544561 C107.740722,26.0544561 108.123218,25.967332 108.361219,25.7930811 C108.59922,25.6188303 108.718219,25.4042074 108.718219,25.1492061 C108.718219,24.9027049 108.60347,24.692332 108.373969,24.5180811 C108.144468,24.3438303 107.844846,24.2014567 107.475094,24.0909561 C107.105342,23.9804556 106.697346,23.8657067 106.251094,23.7467061 C105.804842,23.6277055 105.356471,23.476832 104.905969,23.2940811 C104.455467,23.1113302 104.045346,22.8903324 103.675594,22.6310811 C103.305842,22.3718298 103.00622,22.0148334 102.776719,21.5600811 C102.547218,21.1053289 102.432469,20.5762091 102.432469,19.9727061 C102.432469,18.8082003 102.82559,17.8562098 103.611844,17.1167061 C104.398098,16.3772024 105.466962,16.0074561 106.818469,16.0074561 C107.540973,16.0074561 108.31659,16.12433 109.145344,16.3580811 C109.974098,16.5918323 110.702966,16.9977032 111.331969,17.5757061 L109.636219,19.8707061 C108.718215,19.241703 107.787474,18.9272061 106.843969,18.9272061 C106.367967,18.9272061 106.03647,19.0058303 105.849469,19.1630811 C105.662468,19.3203319 105.568969,19.5052051 105.568969,19.7177061 C105.568969,19.9472073 105.683718,20.1490803 105.913219,20.3233311 C106.14272,20.497582 106.440217,20.6463305 106.805719,20.7695811 C107.171221,20.8928317 107.574967,21.0203305 108.016969,21.1520811 C108.458971,21.2838318 108.898842,21.4495801 109.336594,21.6493311 C109.774346,21.8490821 110.175967,22.0828298 110.541469,22.3505811 C110.906971,22.6183325 111.204468,22.9838288 111.433969,23.4470811 C111.66347,23.9103334 111.778219,24.4394532 111.778219,25.0344561 C111.778219,26.207462 111.361723,27.1594525 110.528719,27.8904561 C109.695715,28.6214598 108.518477,28.9869561 106.996969,28.9869561 C105.959964,28.9869561 105.054723,28.8275827 104.281219,28.5088311 C103.507715,28.1900795 102.776723,27.7629588 102.088219,27.2274561 Z M113.613199,28.6427061 L113.613199,9.31370613 L116.826199,9.31370613 L116.826199,17.1549561 C117.140701,16.9169549 117.406323,16.7320818 117.623074,16.6003311 C117.839825,16.4685805 118.173447,16.3368318 118.623949,16.2050811 C119.074451,16.0733305 119.563197,16.0074561 120.090199,16.0074561 C120.787203,16.0074561 121.433196,16.1137051 122.028199,16.3262061 C122.623202,16.5387072 123.158697,16.857454 123.634699,17.2824561 C124.110702,17.7074583 124.482573,18.2790775 124.750324,18.9973311 C125.018076,19.7155847 125.151949,20.5464514 125.151949,21.4899561 L125.151949,28.6427061 L121.938949,28.6427061 L121.938949,22.0127061 C121.938949,20.0576964 121.084708,19.0802061 119.376199,19.0802061 C117.676191,19.0802061 116.826199,20.0406965 116.826199,21.9617061 L116.826199,28.6427061 L113.613199,28.6427061 Z M127.101679,12.1442061 C127.101679,11.5747033 127.297177,11.0965831 127.688179,10.7098311 C128.079181,10.3230792 128.563676,10.1297061 129.141679,10.1297061 C129.711182,10.1297061 130.187177,10.3209542 130.569679,10.7034561 C130.952181,11.085958 131.143429,11.5662032 131.143429,12.1442061 C131.143429,12.722209 130.952181,13.2045792 130.569679,13.5913311 C130.187177,13.9780831 129.711182,14.1714561 129.141679,14.1714561 C128.563676,14.1714561 128.079181,13.9759581 127.688179,13.5849561 C127.297177,13.1939542 127.101679,12.713709 127.101679,12.1442061 Z M127.522429,28.6427061 L127.522429,16.2369561 L130.735429,16.2369561 L130.735429,28.6427061 L127.522429,28.6427061 Z M133.373659,35.2472061 L133.373659,16.2369561 L136.586659,16.2369561 L136.586659,17.1549561 C137.530164,16.3899523 138.677652,16.0074561 140.029159,16.0074561 C141.856668,16.0074561 143.410028,16.6364498 144.689284,17.8944561 C145.96854,19.1524624 146.608159,20.6824471 146.608159,22.4844561 C146.608159,23.657462 146.317037,24.7433261 145.734784,25.7420811 C145.152531,26.7408361 144.355664,27.5313282 143.344159,28.1135811 C142.332654,28.695834 141.227665,28.9869561 140.029159,28.9869561 C138.677652,28.9869561 137.530164,28.60446 136.586659,27.8394561 L136.586659,35.2472061 L133.373659,35.2472061 Z M136.586659,22.6374561 C136.629159,23.5299606 136.984031,24.2970779 137.651284,24.9388311 C138.318537,25.5805843 139.111155,25.9014561 140.029159,25.9014561 C140.964164,25.9014561 141.767406,25.5635845 142.438909,24.8878311 C143.110412,24.2120778 143.446159,23.4109608 143.446159,22.4844561 C143.446159,21.5664515 143.110412,20.7695845 142.438909,20.0938311 C141.767406,19.4180778 140.964164,19.0802061 140.029159,19.0802061 C139.111155,19.0802061 138.318537,19.4032029 137.651284,20.0492061 C136.984031,20.6952094 136.629159,21.4602017 136.586659,22.3442061 L136.586659,22.6374561 Z" id="Designership" fill="#FFFFFF"></path>
                    <ellipse id="Oval" fill-opacity="0.08" fill="#000000" transform="translate(9.812155, 10.677590) rotate(-7.000000) translate(-9.812155, -10.677590) " cx="9.8121547" cy="10.6775899" rx="4.90607735" ry="1"></ellipse>
                    <g id="Group" transform="translate(9.198895, 5.954810) rotate(-7.000000) translate(-9.198895, -5.954810) translate(0.817680, 1.232030)">
                        <path d="M4.97077032,4.35389142 C4.99225683,4.4303159 5.04588216,4.49357363 5.11764242,4.52724516 L8.04302919,5.89950315 C8.07966278,5.91670322 8.11918029,5.92531626 8.15872377,5.92531626 C8.19631867,5.92531626 8.23393954,5.9175359 8.2690922,5.90194915 L11.1270316,4.63557173 C11.2034945,4.60169203 11.2602116,4.53458316 11.2809446,4.45347484 C11.3016777,4.37236652 11.2841403,4.28621008 11.2333469,4.2196997 L8.09213379,0.107219217 C8.03848247,0.0370138152 7.95438111,-0.00292884306 7.86599284,0.000167688748 C7.77776045,0.00323819929 7.69646507,0.0488795169 7.64780215,0.122649834 L5.00571512,4.12924974 C4.96204061,4.19547389 4.94928381,4.27746693 4.97077032,4.35389142" id="Fill-10" fill="#FFCC02"></path>
                        <path d="M8.23947071,6.73069174 C8.23858734,6.62697093 8.1791422,6.53269585 8.08599936,6.48731475 L0.392140707,2.73921019 C0.285435642,2.68721968 0.157373976,2.71030055 0.0754030777,2.79632689 C-0.00651585794,2.88235323 -0.0235076067,3.01154886 0.0333913686,3.11589418 L3.30388731,9.11299158 C3.35332966,9.2036497 3.44678428,9.25530193 3.54351254,9.25530193 C3.58508257,9.25530193 3.62725016,9.24575212 3.66679365,9.2256637 L8.09015636,6.97664484 C8.18251977,6.92967644 8.24032809,6.83441254 8.23947071,6.73069174" id="Fill-7" fill="#F0AF07"></path>
                        <g id="Fill-5">
                            <use fill="black" fill-opacity="1" filter="url(#filter-2)" xlink:href="#path-1"></use>
                            <use fill="#FFCC02" fill-rule="evenodd" xlink:href="#path-1"></use>
                        </g>
                    </g>
                </g>
            </g>
        </g>
    </g>
</svg>