<?xml version="1.0" encoding="utf-8"?>
<!-- Generator: Adobe Illustrator 16.0.0, SVG Export Plug-In . SVG Version: 6.00 Build 0)  -->
<!DOCTYPE svg PUBLIC "-//W3C//DTD SVG 1.1//EN" "http://www.w3.org/Graphics/SVG/1.1/DTD/svg11.dtd">
<svg version="1.1" id="Layer_1" xmlns="http://www.w3.org/2000/svg" xmlns:xlink="http://www.w3.org/1999/xlink" x="0px" y="0px"
	 width="232.373px" height="357.365px" viewBox="472.219 93.835 232.373 357.365"
	 enable-background="new 472.219 93.835 232.373 357.365" xml:space="preserve">
<g display="none">
	
		<rect x="-875.434" y="-1192.224" display="inline" stroke="#000000" stroke-width="0.4634" stroke-miterlimit="10" width="5889.317" height="7595.42"/>
</g>
<path fill="#FFFFFF" d="M651.922,307.17c33.059-21.59,52.67-57.613,52.67-97.151c0-64.065-52.123-116.184-116.184-116.184
	c-64.066,0-116.189,52.124-116.189,116.184c0,39.538,19.613,75.562,52.67,97.151v66.059h127.033V307.17L651.922,307.17z
	 M575.731,208.694c0-12.662,6.23-24.461,16.68-31.579c6.352-4.358,13.805-6.658,21.557-6.658c21.088,0,38.242,17.155,38.242,38.242
	c0,21.086-17.154,38.242-38.242,38.242c-4.516,0-8.895-0.868-13.031-2.386c9.062-9.6,14.305-22.354,14.305-35.856h-14.17
	c0,12.633-6.23,24.417-16.703,31.549c-6.322,4.377-13.771,6.691-21.537,6.691c-21.088,0-38.238-17.154-38.238-38.242
	s17.156-38.242,38.238-38.242c4.502,0,8.865,0.864,13.008,2.367c-9.049,9.604-14.285,22.363-14.285,35.875h14.18v-0.004H575.731z
	 M637.752,299.275v59.79h-42.264V257.717c5.85,2.218,12.086,3.384,18.482,3.384c28.902,0,52.412-23.511,52.412-52.411
	c0-28.9-23.51-52.411-52.412-52.411c-9.047,0-17.797,2.313-25.568,6.677c-7.785-4.368-16.525-6.677-25.568-6.677
	c-28.896,0-52.406,23.511-52.406,52.411c0,28.9,23.51,52.411,52.406,52.411c6.402,0,12.637-1.171,18.484-3.384v101.342h-42.266
	v-59.783l-3.412-2.068c-30.84-18.711-49.254-51.304-49.254-87.188c0-56.251,45.766-102.014,102.021-102.014
	c56.25,0,102.014,45.763,102.014,102.014c0,35.885-18.418,68.478-49.258,87.188L637.752,299.275z"/>
<path fill="#FFFFFF" d="M644.131,388.315H532.68c-3.912,0-7.084,3.174-7.084,7.086c0,3.91,3.172,7.084,7.084,7.084h111.451
	c3.912,0,7.084-3.174,7.084-7.084C651.215,391.489,648.043,388.315,644.131,388.315z"/>
<path fill="#FFFFFF" d="M651.215,419.76c0-3.912-3.172-7.086-7.084-7.086H532.68c-3.912,0-7.084,3.174-7.084,7.086
	s3.172,7.084,7.084,7.084h111.451C648.043,426.844,651.215,423.672,651.215,419.76z"/>
<path fill="#FFFFFF" d="M556.047,437.03c-3.912,0-7.086,3.174-7.086,7.086s3.174,7.084,7.086,7.084h64.713
	c3.912,0,7.084-3.172,7.084-7.084s-3.172-7.086-7.084-7.086H556.047L556.047,437.03z"/>
</svg>
