<?xml version="1.0" encoding="UTF-8"?>
<svg width="56px" height="86px" viewBox="0 0 56 86" version="1.1" xmlns="http://www.w3.org/2000/svg" xmlns:xlink="http://www.w3.org/1999/xlink">
    <!-- Generator: Sketch 43.2 (39069) - http://www.bohemiancoding.com/sketch -->
    <title>Group 24</title>
    <desc>Created with Sketch.</desc>
    <defs></defs>
    <g id="Homepage" stroke="none" stroke-width="1" fill="none" fill-rule="evenodd">
        <g id="Home---Left-Aligned" transform="translate(-1181.000000, -893.000000)">
            <g id="Group-24" transform="translate(1181.000000, 893.000000)">
                <path d="M52.3200414,60.3377116 C51.9961884,59.9981345 51.485696,59.9037229 51.0587519,60.1044236 L0.617203699,83.8034585 C0.160583414,84.0179657 -0.0843743421,84.5126621 0.0264718863,84.9974098 C0.137214713,85.482259 0.574395547,85.8256939 1.08054507,85.8281303 L37.8439582,86 L37.8492317,86 C38.2413295,86 38.6031308,85.7959491 38.7954573,85.4602297 L52.4735923,61.5888175 C52.7058317,61.1835583 52.6436875,60.6771873 52.3200414,60.3377116" id="Fill-5" fill="#50E3C2"></path>
                <path d="M8.07685565,32.1064797 C8.23848974,32.6700493 8.6418909,33.1365246 9.18171358,33.3848253 L31.1881852,43.5041345 C31.4637644,43.6309713 31.7610383,43.6944856 32.0585075,43.6944856 C32.3413183,43.6944856 32.6243246,43.6371117 32.8887634,43.5221718 L54.3878564,34.1836475 C54.9630548,33.9338117 55.3897141,33.4389372 55.5456803,32.840828 C55.7016464,32.2427188 55.5697202,31.6073837 55.1876226,31.1169227 L31.5575787,0.790656285 C31.153982,0.272947391 30.5213224,-0.0215978836 29.8564141,0.00123657089 C29.1926784,0.0238791393 28.581127,0.360447486 28.215056,0.904444785 L8.33973092,30.4499263 C8.01118569,30.9382766 7.91522156,31.54291 8.07685565,32.1064797" id="Fill-10-Copy-3" fill="#FFCC02"></path>
            </g>
        </g>
    </g>
</svg>