<?xml version="1.0" encoding="UTF-8"?>
<svg width="85px" height="112px" viewBox="0 0 85 112" version="1.1" xmlns="http://www.w3.org/2000/svg" xmlns:xlink="http://www.w3.org/1999/xlink">
    <!-- Generator: Sketch 43.2 (39069) - http://www.bohemiancoding.com/sketch -->
    <title>Group 23</title>
    <desc>Created with Sketch.</desc>
    <defs></defs>
    <g id="Homepage" stroke="none" stroke-width="1" fill="none" fill-rule="evenodd">
        <g id="Home---Left-Aligned" transform="translate(-178.000000, -1002.000000)">
            <g id="Group-23" transform="translate(176.000000, 1002.000000)">
                <path d="M86.9999304,93.1673708 C86.9933905,92.4146328 86.5532955,91.7304456 85.8637237,91.4010991 L28.9031666,64.1997969 C28.1131884,63.8224836 27.1650993,63.9899895 26.5582376,64.6143127 C25.9517606,65.2386358 25.8259643,66.1762536 26.247209,66.933524 L50.4599323,110.456552 C50.8259728,111.114489 51.5178528,111.489348 52.2339689,111.489348 C52.5417276,111.489348 52.8539103,111.420041 53.1466658,111.274253 L85.8944996,94.9523383 C86.5783009,94.6114722 87.0062779,93.9201089 86.9999304,93.1673708" id="Fill-7" fill="#FFCC02"></path>
                <path d="M33.6354915,7.15114501 L5.46834917,6.04891598 C5.05132126,5.84973304 4.55082684,5.9381591 4.23046573,6.26773807 C3.91030771,6.59731705 3.84390005,7.09228366 4.06627432,7.4920452 L16.8481239,30.4677671 C17.041356,30.8150911 17.4065981,31.012978 17.7846344,31.012978 C17.9470996,31.012978 18.1119003,30.9763914 18.2664453,30.8994298 L35.5539632,22.2831229 C35.9149406,22.1031803 36.1408688,21.738211 36.1375179,21.340842 C36.1340656,20.9434731 33.9995152,7.32500639 33.6354915,7.15114501 Z" id="Fill-7-Copy" fill="#50E3C2" transform="translate(20.036664, 18.478211) scale(-1, 1) rotate(27.000000) translate(-20.036664, -18.478211) "></path>
            </g>
        </g>
    </g>
</svg>