<?xml version="1.0" encoding="UTF-8"?>
<svg width="29px" height="29px" viewBox="0 0 29 29" version="1.1" xmlns="http://www.w3.org/2000/svg" xmlns:xlink="http://www.w3.org/1999/xlink">
    <!-- Generator: Sketch 43.2 (39069) - http://www.bohemiancoding.com/sketch -->
    <title>Group</title>
    <desc>Created with Sketch.</desc>
    <defs></defs>
    <g id="Homepage" stroke="none" stroke-width="1" fill="none" fill-rule="evenodd">
        <g id="Home---Left-Aligned" transform="translate(-220.000000, -440.000000)" fill-rule="nonzero">
            <g id="Header" transform="translate(202.000000, 206.000000)">
                <g id="Group-3">
                    <g id="Group-2" transform="translate(0.000000, 223.000000)">
                        <g id="Group" transform="translate(18.000000, 11.000000)">
                            <path d="M2.45578448,15.2864249 C1.37925745,15.2947106 0.467325021,14.6488194 0.131081778,13.6407242 C0.118607992,13.6026521 0.106978976,13.5643047 0.0962033992,13.5257106 C-0.27021552,12.2347174 0.44028448,10.884146 1.71373718,10.4517106 L22.1391426,3.56213917 C22.3816668,3.49150071 22.6326488,3.45459624 22.8851088,3.4524521 C23.9902439,3.44377183 24.9272575,4.10386707 25.2717304,5.13326843 L25.302298,5.232697 C25.6843926,6.57735006 24.7350345,7.77759496 23.5975683,8.16228883 C23.5967845,8.16288067 23.3898656,8.23330924 3.28541962,15.1441868 C3.01819389,15.2359024 2.73809969,15.2839236 2.45578448,15.2864249 L2.45578448,15.2864249 Z" id="Shape" fill="#70CADB"></path>
                            <path d="M5.86034529,25.3999283 C4.77539259,25.4078194 3.86032502,24.7710031 3.5280007,23.7773092 C3.5153859,23.7395084 3.50362611,23.7014237 3.49273043,23.6630848 C3.12121691,22.3567038 3.83093313,20.9919283 5.10869664,20.5589011 L25.5348858,13.6062004 C25.798825,13.5174249 26.0713858,13.4720507 26.3455142,13.4694861 C27.4334061,13.4612004 28.3892304,14.1303705 28.7264534,15.1353092 L28.7578048,15.2398671 C28.9551223,15.9344861 28.8385345,16.7151188 28.4462507,17.3312208 C28.1538993,17.7893024 27.2317777,18.1925405 27.2317777,18.1925405 L6.72799394,25.2509827 C6.4483535,25.3462948 6.15555338,25.3966917 5.86034529,25.4003228 L5.86034529,25.3999283 L5.86034529,25.3999283 Z" id="Shape" fill="#E01765"></path>
                            <path d="M22.8637507,25.4439215 C21.7776142,25.4544227 20.8082348,24.7597332 20.4624331,23.7230575 L13.6454737,3.33625482 L13.6113791,3.22183305 C13.242021,1.92176502 13.952325,0.565669787 15.2253858,0.13362897 C15.4801156,0.047418086 15.7434669,0.00243849416 16.0085818,7.11472194e-05 C16.4024331,-0.00288803645 16.783548,0.0864793105 17.142521,0.265016725 C17.7397538,0.562376194 18.1945594,1.08723172 18.4061764,1.72330244 L25.222548,22.1083297 L25.2423385,22.1738262 C25.6252169,23.5236086 24.9164804,24.8804929 23.6434196,25.3125337 C23.391955,25.397116 23.1288662,25.441451 22.8637507,25.4439215 L22.8637507,25.4439215 Z" id="Shape" fill="#E8A723"></path>
                            <path d="M12.730798,28.8777582 C11.644035,28.8881808 10.6741974,28.192889 10.3285007,27.1555133 L3.51330475,6.76949972 C3.30003182,6.13431005 3.34649303,5.43979354 3.64244079,4.83913436 C3.93838854,4.23847517 4.45951005,3.78101884 5.09086556,3.56766298 C5.34270302,3.48290385 5.60618611,3.43843609 5.87171016,3.43588067 C6.95802934,3.42508312 7.92767749,4.11985181 8.27341962,5.15674462 L15.0888115,25.5435473 C15.3021866,26.179044 15.2555728,26.8739108 14.9592606,27.4747493 C14.6629483,28.0755878 14.1413045,28.5329885 13.5094872,28.7459759 C13.2581391,28.8307799 12.99509,28.875186 12.7300142,28.8775609 L12.730798,28.8775609 L12.730798,28.8777582 Z" id="Shape" fill="#3EB890"></path>
                        </g>
                    </g>
                </g>
            </g>
        </g>
    </g>
</svg>