<?xml version="1.0" encoding="utf-8"?>
<!-- Generator: Adobe Illustrator 16.0.0, SVG Export Plug-In . SVG Version: 6.00 Build 0)  -->
<!DOCTYPE svg PUBLIC "-//W3C//DTD SVG 1.1//EN" "http://www.w3.org/Graphics/SVG/1.1/DTD/svg11.dtd">
<svg version="1.1"
	 id="Layer_1" xmlns:sodipodi="http://sodipodi.sourceforge.net/DTD/sodipodi-0.dtd" xmlns:dc="http://purl.org/dc/elements/1.1/" xmlns:cc="http://creativecommons.org/ns#" xmlns:svg="http://www.w3.org/2000/svg" xmlns:rdf="http://www.w3.org/1999/02/22-rdf-syntax-ns#" xmlns:inkscape="http://www.inkscape.org/namespaces/inkscape"
	 xmlns="http://www.w3.org/2000/svg" xmlns:xlink="http://www.w3.org/1999/xlink" x="0px" y="0px" width="384.96px"
	 height="373.7px" viewBox="408.41 114.665 384.96 373.7" enable-background="new 408.41 114.665 384.96 373.7"
	 xml:space="preserve">
<path fill="#FFFFFF" d="M451.87,332.306l-35.804,7.318c-0.438,0.09-0.862,0.133-1.291,0.133c-2.963,0-5.621-2.08-6.233-5.098
	c-0.708-3.457,1.519-6.82,4.964-7.521l35.803-7.328c3.452-0.695,6.818,1.523,7.525,4.977
	C457.542,328.224,455.312,331.595,451.87,332.306z M786.896,337.669c-2.973,3.76-6.729,6.67-10.965,8.621
	c4.713,4.652,7.93,10.848,8.747,17.871c0.923,7.965-1.304,15.818-6.275,22.102c-2.362,2.988-5.228,5.438-8.416,7.303
	c5.233,4.73,8.817,11.307,9.692,18.791c1.604,13.773-6.442,26.451-18.758,31.35c-2.91,1.539-48.846,25.805-69.922,32.383
	c-19.379,6.035-64.761,13.209-100.646,9.426c-29.387-3.104-53.636-10.768-60.062-12.939l-88.628,15.688
	c-0.377,0.07-0.746,0.102-1.115,0.102c-3.035,0-5.728-2.174-6.271-5.27c-0.613-3.461,1.698-6.768,5.167-7.383l90.253-15.979
	c1.093-0.197,2.217-0.096,3.258,0.277c0.266,0.088,26.672,9.439,58.731,12.822c32.613,3.443,76.424-2.967,95.51-8.922
	c9.047-2.82,23.508-9.395,36.765-15.812l-34.062,2.84c-1.372,0.156-2.774,0.234-4.174,0.234c-14.073,0-29.3-8.322-31.154-24.232
	c-0.933-7.955,1.304-15.811,6.274-22.102c0.317-0.402,0.669-0.766,1.005-1.152c-8.718-4.426-15.055-12.988-16.255-23.303
	c-1.202-10.355,3.044-20.105,10.457-26.393c-6.71-4.775-11.417-12.248-12.438-20.982c-1.063-9.145,2.131-17.809,7.985-24.043
	c-8.172-4.562-14.055-12.836-15.211-22.723c-0.931-7.968,1.305-15.812,6.276-22.105c4.974-6.285,12.104-10.264,20.064-11.189
	l50.023-5.832c-9.989-1.668-21.746-2.422-33.989-0.629c-10.023,1.467-18.678,2.092-26.137,2.092
	c-40.679,0-46.037-18.594-46.572-21.076c-0.064-0.295-0.107-0.602-0.125-0.904l-2.605-38.098c-0.021-0.3-0.021-0.596,0-0.892
	c1.83-25.403-2.804-43.054-13.784-52.46c-8.91-7.631-20.1-8.085-26.147-7.64l-10.41,93.692c-0.107,0.99-0.446,1.938-0.991,2.772
	l-30.607,47.071l-13.6,44.164c-0.669,2.174-2.444,3.824-4.665,4.334l-31.646,7.281c-0.476,0.105-0.959,0.158-1.432,0.158
	c-2.906,0-5.524-1.992-6.204-4.943c-0.789-3.43,1.352-6.855,4.781-7.643l28.062-6.449l12.779-41.507
	c0.175-0.565,0.428-1.103,0.754-1.601l30.271-46.547l10.792-97.121c0.296-2.692,2.268-4.9,4.909-5.509
	c0.973-0.223,24.017-5.303,41.649,9.81c14.153,12.12,20.283,33.18,18.238,62.604l2.521,36.806c0.474,1.017,2.347,4.091,8.339,6.763
	c7.361,3.278,22.005,6.323,49.99,2.233c33.119-4.846,62.104,6.533,68.934,9.5c0.52-0.024,1.042-0.09,1.557-0.09
	c15.216,0,28.021,11.412,29.788,26.541c0.875,7.521-1.148,14.711-5.146,20.498c11.163,3.383,19.688,13.111,21.099,25.244
	C794.107,323.525,791.878,331.375,786.896,337.669z M649.07,284.764c1.016,8.707,8.383,15.271,17.129,15.271
	c0.668,0,1.35-0.043,2.031-0.115l1.625-0.189c0.039-0.004,0.075-0.018,0.114-0.021l79.438-9.265
	c9.463-1.104,16.253-9.694,15.149-19.147c-1.012-8.707-8.382-15.271-17.128-15.271c-0.663,0-1.35,0.039-2.03,0.117l-81.178,9.465
	c-4.584,0.537-8.683,2.821-11.542,6.438C649.82,275.666,648.539,280.18,649.07,284.764z M767.02,413.826
	c-1.022-8.703-8.382-15.271-17.127-15.271c-0.678,0-1.352,0.047-2.031,0.119L682.4,406.3c-4.583,0.531-8.688,2.826-11.547,6.438
	c-2.867,3.623-4.146,8.139-3.608,12.725c0.985,8.506,10.058,12.957,18.486,12.957c0.938,0,1.882-0.051,2.805-0.162
	c0.072-0.01,0.137-0.018,0.205-0.025l63.209-5.27C761.36,431.82,768.113,423.253,767.02,413.826z M772.02,365.64
	c-1.017-8.703-8.372-15.275-17.118-15.275c-0.66,0-1.325,0.045-1.979,0.117l-75.998,8.855c-0.008,0-0.017,0-0.023,0l-3.474,0.406
	c-9.454,1.104-16.259,9.703-15.146,19.156c1.017,8.703,8.374,15.279,17.12,15.279c0.677,0,1.357-0.043,2.029-0.115l3.351-0.391
	c0.052-0.01,0.095-0.021,0.142-0.023l65.464-7.633c0.004,0,0.004,0,0.01,0l10.47-1.223c4.584-0.537,8.683-2.818,11.542-6.438
	C771.27,374.742,772.551,370.224,772.02,365.64z M780.513,317.046c-1.012-8.711-8.374-15.274-17.129-15.274
	c-0.665,0-1.354,0.043-2.021,0.115l-10.479,1.223l0,0l-79.432,9.265c-9.467,1.107-16.254,9.699-15.157,19.152
	c1.017,8.701,8.383,15.271,17.129,15.271c0.668,0,1.354-0.035,2.031-0.121l46.056-5.367l29.889-3.482
	c0.021-0.006,0.048,0,0.066-0.006l13.904-1.621c4.575-0.531,8.677-2.82,11.537-6.438
	C779.766,326.136,781.044,321.621,780.513,317.046z M566.576,385.533c-3.25,1.361-4.771,5.094-3.417,8.34
	c1.021,2.443,3.392,3.918,5.878,3.918c0.822,0,1.659-0.162,2.46-0.5c13.287-5.566,23.161-12.365,30.56-19.504
	c4.854,3.961,12.75,11.682,14.461,21.084c0.56,3.082,3.237,5.24,6.271,5.24c0.372,0,0.759-0.035,1.141-0.104
	c3.474-0.627,5.764-3.949,5.138-7.41c-2.386-13.104-12.24-23.139-18.581-28.389c5.556-7.568,8.825-15.088,10.694-21.576
	c4.871-16.912,1.741-30.566,1.608-31.143c-0.819-3.428-4.258-5.539-7.685-4.73c-3.427,0.812-5.539,4.244-4.729,7.67
	c0.026,0.107,2.444,11.152-1.458,24.666C603.554,361.728,589.303,376.009,566.576,385.533z"/>
</svg>
